<?xml version="1.0"?>
<svg width="880" height="400" xmlns="http://www.w3.org/2000/svg" xmlns:svg="http://www.w3.org/2000/svg" data-name="logo-sparc-wave-primary">
 <defs>
  <linearGradient id="linear-gradient" x1="0" x2="1" y1="0.5" y2="0.5">
   <stop offset="0" stop-color="#0b00bf"/>
   <stop offset="1" stop-color="#bc00fc"/>
  </linearGradient>
 </defs>
 <title>SPARC Logo</title>
 <g class="layer">
  <title>Layer 1</title>
  <path d="m621.7,137.62l-146.28,-3.38a6.54,6.54 0 0 0 -6.13,3.93l-0.06,0.14l-13.68,31.45l-27.61,-151.23l-0.01,-0.07a8.98,8.98 0 0 0 -17.66,-0.01l-21.6,115.93l-160.37,3.91a3.38,3.38 0 0 0 0.02,6.76l166.02,2.71a6.59,6.59 0 0 0 6.54,-5.14l0.05,-0.26l17.86,-79.56l27.47,131.32l0.03,0.13a6.76,6.76 0 0 0 12.8,1.27l20.81,-47.86l141.8,-3.28a3.38,3.38 0 0 0 0,-6.76z" fill="url(#linear-gradient)" id="svg_1"/>
  <path d="m262.68,9c15.72,0 25.38,10.09 25.38,26.1l0,9.51l-14.85,0l0,-9.51c0,-7.36 -3.9,-11.82 -10.53,-11.82c-6.78,0 -10.67,4.46 -10.67,11.82c0,3.89 1.3,7.35 5.48,11.39l19.75,18.6c6.35,6.05 11.97,12.69 11.97,23.79c0,16 -9.95,26.1 -25.95,26.1c-16.15,0 -26.1,-10.09 -26.1,-26.1l0,-9.52l14.85,0l0,9.52c0,7.35 4.04,11.82 11.25,11.82c7.06,0 11.1,-4.47 11.1,-11.82c0,-4.47 -2.16,-8.65 -6.06,-12.26l-20.18,-18.88c-8.08,-7.5 -10.96,-13.85 -10.96,-23.07c0,-15.58 9.66,-25.67 25.52,-25.67z" fill="#0e0e19" id="svg_2"/>
  <path d="m336.8,78.79l0,35.18l-14.85,0l0,-103.96l25.37,0c16.01,0 26.1,10.09 26.1,26.1l0,16.58c0,16.15 -10.09,26.1 -26.1,26.1l-10.52,0zm10.38,-13.99c7.21,0 11.39,-4.32 11.39,-11.68l0,-17.44c0,-7.21 -4.18,-11.69 -11.39,-11.69l-10.38,0l0,40.81l10.38,0z" fill="#0e0e19" id="svg_3"/>
  <path d="m494.58,117.15l-14.85,0l0,-103.96l26.1,0c16,0 26.09,10.09 26.09,26.1l0,14.13c0,9.95 -4.32,17.73 -11.39,22.2c4.19,12.69 10.1,29.99 13.85,41.53l-15.14,0l-12.55,-37.78l-12.11,0l0,37.78zm11.1,-51.77c7.21,0 11.39,-4.32 11.39,-11.53l0,-14.99c0,-7.21 -4.18,-11.69 -11.39,-11.69l-11.1,0l0,38.21l11.1,0z" fill="#0e0e19" id="svg_4"/>
  <path d="m617.84,82.54l0,9.52c0,16 -9.94,26.1 -25.95,26.1c-16.15,0 -26.1,-10.1 -26.1,-26.1l0,-53.78c0,-16.01 9.95,-26.1 26.1,-26.1c16.01,0 25.95,10.09 25.95,26.1l0,9.51l-14.85,0l0,-9.51c0,-7.36 -4.03,-11.83 -11.1,-11.83c-7.21,0 -11.25,4.47 -11.25,11.83l0,53.78c0,7.35 4.04,11.82 11.25,11.82c7.07,0 11.1,-4.47 11.1,-11.82l0,-9.52l14.85,0z" fill="#0e0e19" id="svg_5"/>
  <text fill="#000000" font-family="Sans-serif" font-size="85" font-style="normal" font-weight="bold" id="svg_6" letter-spacing="0" stroke="#000000" stroke-width="0" text-anchor="middle" transform="matrix(1.09797 0 0 1.6362 44.1998 82.2937)" x="358.21" xml:space="preserve" y="147.2">SCKAN EXPLORER</text>
  <text fill="#000000" font-family="Sans-serif" font-size="42" font-weight="bold" id="svg_7" letter-spacing="1" stroke="#000000" stroke-width="0" text-anchor="middle" transform="matrix(0.938702 0 0 1 35.7771 0)" x="430.62" xml:space="preserve" y="386">Explore the SPARC Connectivity Knowledge</text>
 </g>
</svg>